<svg xmlns="http://www.w3.org/2000/svg" id="Layer_2" x="0" y="0" version="1.1" viewBox="0 0 48 48" xml:space="preserve"><path fill="#a5d6a7" d="M43,40.8v5.1c0,0.6-0.5,1-1,1H16.1c-1.7,0-3.1-1.4-3.1-3.1V12.1c0-1.7,1.4-3.1,3.1-3.1H42c0.6,0,1,0.5,1,1	V40.8"/><line x1="38.5" x2="38.5" y1="31.3" y2="36.5" fill="none" stroke="#18193f" stroke-linecap="round" stroke-linejoin="round" stroke-miterlimit="10" stroke-width="3"/><path fill="none" stroke="#18193f" stroke-linecap="round" stroke-linejoin="round" stroke-miterlimit="10" stroke-width="3" d="M9.5,13.7V8.5c0-1.7,1.3-3,3-3h25c0.6,0,1,0.4,1,1v18"/><path fill="none" stroke="#18193f" stroke-linecap="round" stroke-linejoin="round" stroke-miterlimit="10" stroke-width="3" d="M37.5,42.5h-25c-1.7,0-3-1.3-3-3V21"/><path fill="none" stroke="#18193f" stroke-linecap="round" stroke-linejoin="round" stroke-miterlimit="10" stroke-width="3" d="M9.5,39.5c0-1.7,1.3-3,3-3h26"/><ellipse cx="24.5" cy="21" fill="none" stroke="#18193f" stroke-linecap="round" stroke-linejoin="round" stroke-miterlimit="10" stroke-width="3" rx="3" ry="3.5"/><path fill="none" stroke="#18193f" stroke-linecap="round" stroke-linejoin="round" stroke-miterlimit="10" stroke-width="3" d="M27.5,17.5v4c0,1.7,1.3,3,3,3l0,0c1.7,0,3-1.3,3-3v-1c0-5.1-3-9-9.3-9c-4.7,0-8.7,4-8.7,9.5	c0,5.5,3.9,9.5,9,9.5h2"/></svg>