<svg xmlns="http://www.w3.org/2000/svg" id="Layer_1" x="0" y="0" version="1.1" viewBox="0 0 48 48" xml:space="preserve"><path fill="#a5d6a7" d="M30,12.3l1.7-1.2c1.7-1.2,4.2-0.3,4.7,1.7l0.6,2.1c0.3,1.2,1.4,2.1,2.7,2.3l2.1,0.2c2.1,0.2,3.4,2.4,2.5,4.3	l-0.9,1.9c-0.5,1.2-0.3,2.6,0.6,3.5l1.5,1.5c1.5,1.5,1.1,4-0.9,4.9l-1.9,0.9c-1.2,0.5-1.9,1.8-1.8,3l0.2,2.1	c0.2,2.1-1.8,3.8-3.8,3.2l-2.1-0.6c-1.2-0.3-2.6,0.1-3.3,1.2l-1.2,1.8c-1.2,1.7-3.8,1.7-5,0l-1.2-1.8c-0.7-1.1-2.1-1.5-3.3-1.2	l-2.1,0.6c-2.1,0.6-4-1.1-3.8-3.2l0.2-2.1c0.1-1.3-0.6-2.5-1.8-3l-1.9-0.9c-1.9-0.9-2.4-3.4-0.9-4.9l1.5-1.5	c0.9-0.9,1.2-2.3,0.6-3.5l-0.9-1.9c-0.9-1.9,0.4-4.2,2.5-4.3l2.1-0.2c1.3-0.1,2.4-1,2.7-2.3l0.6-2.1c0.5-2.1,3-2.9,4.7-1.7l1.7,1.2	C27.6,13,29,13,30,12.3z"/><polyline fill="none" stroke="#18193f" stroke-linecap="round" stroke-linejoin="round" stroke-width="3" points="16.5,24.5 21.5,29.5 31.5,19.5"/><path fill="none" stroke="#18193f" stroke-linecap="round" stroke-linejoin="round" stroke-width="3" d="M37.2,35.6c0.2,2.1-1.8,3.8-3.8,3.2l-2.1-0.6c-1.2-0.3-2.6,0.1-3.3,1.2l-1.2,1.8c-1.2,1.7-3.8,1.7-5,0	l-1.2-1.8c-0.7-1.1-2.1-1.5-3.3-1.2l-2.1,0.6c-2.1,0.6-4-1.1-3.8-3.2l0.2-2.1c0.1-1.3-0.6-2.5-1.8-3l-1.9-0.9	c-1.9-0.9-2.4-3.4-0.9-4.9L8.4,23c0.9-0.9,1.2-2.3,0.6-3.5l-0.9-1.9c-0.9-1.9,0.4-4.2,2.5-4.3"/><path fill="none" stroke="#18193f" stroke-linecap="round" stroke-linejoin="round" stroke-width="3" d="M15.5,10.8L16,8.8c0.5-2.1,3-2.9,4.7-1.7l1.7,1.2C23.6,9,25,9,26,8.3l1.7-1.2c1.7-1.2,4.2-0.3,4.7,1.7l0.6,2.1	c0.3,1.2,1.4,2.1,2.7,2.3l2.1,0.2c2.1,0.2,3.4,2.4,2.5,4.3l-0.9,1.9c-0.5,1.2-0.3,2.6,0.6,3.5l1.5,1.5c1.5,1.5,1.1,4-0.9,4.9"/></svg>