<svg xmlns="http://www.w3.org/2000/svg" id="Layer_1" x="0" y="0" version="1.1" viewBox="0 0 48 48" xml:space="preserve"><path fill="#90caf9" d="M46,15.1v25.8c0,2.3-1.8,4.1-4.1,4.1H14.1c-2.3,0-4.1-1.8-4.1-4.1V15.1c0-2.3,1.8-4.1,4.1-4.1h27.8	C44.2,11,46,12.8,46,15.1z"/><path fill="none" stroke="#18193f" stroke-linecap="round" stroke-linejoin="round" stroke-width="3" d="M41.5,34v2.5c0,2.2-1.8,4-4,4h-27c-2.2,0-4-1.8-4-4v-25c0-2.2,1.8-4,4-4h2.7"/><path fill="none" stroke="#18193f" stroke-linecap="round" stroke-linejoin="round" stroke-width="3" d="M21.3,7.5h16.2c2.2,0,4,1.8,4,4v16.7"/><line x1="28.5" x2="28.5" y1="13.5" y2="40.5" fill="none" stroke="#18193f" stroke-linecap="round" stroke-linejoin="round" stroke-width="3"/><line x1="12.5" x2="21.5" y1="24" y2="24" fill="none" stroke="#18193f" stroke-linecap="round" stroke-linejoin="round" stroke-width="3"/><polyline fill="none" stroke="#18193f" stroke-linecap="round" stroke-linejoin="round" stroke-width="3" points="19,19.5 23.5,24 19,28.5"/></svg>