<svg xmlns="http://www.w3.org/2000/svg" xmlns:xlink="http://www.w3.org/1999/xlink" version="1.1" width="1000" height="1000" viewBox="0 0 1000 1000" xml:space="preserve">
<desc>Created with Fabric.js 3.5.0</desc>
<defs>
</defs>
<rect x="0" y="0" width="100%" height="100%" fill="#111111"/>
<g transform="matrix(18.9394 0 0 18.9394 500.0001 500.0001)" id="477653">
<g style="" vector-effect="non-scaling-stroke">
		<g transform="matrix(1 0 0 1 3 6)" id="Layer_1">
<path style="stroke: none; stroke-width: 1; stroke-dasharray: none; stroke-linecap: butt; stroke-dashoffset: 0; stroke-linejoin: miter; stroke-miterlimit: 4; is-custom-font: none; font-file-url: none; fill: rgb(144,202,249); fill-rule: nonzero; opacity: 1;" transform=" translate(-27, -30)" d="M 37 46 H 17 c -3.3 0 -6 -2.7 -6 -6 V 20 c 0 -3.3 2.7 -6 6 -6 h 20 c 3.3 0 6 2.7 6 6 v 20 C 43 43.3 40.3 46 37 46 z" stroke-linecap="round"/>
</g>
		<g transform="matrix(1 0 0 1 -9.5 -9)" id="Layer_1">
<path style="stroke: rgb(83,194,139); stroke-width: 3; stroke-dasharray: none; stroke-linecap: round; stroke-dashoffset: 0; stroke-linejoin: round; stroke-miterlimit: 10; is-custom-font: none; font-file-url: none; fill: none; fill-rule: nonzero; opacity: 1;" transform=" translate(-14.5, -15)" d="M 6.5 20.5 v -5 c 0 -3.3 2.7 -6 6 -6 h 10" stroke-linecap="round"/>
</g>
		<g transform="matrix(1 0 0 1 -1.5 9.5)" id="Layer_1">
<path style="stroke: rgb(83,194,139); stroke-width: 3; stroke-dasharray: none; stroke-linecap: round; stroke-dashoffset: 0; stroke-linejoin: round; stroke-miterlimit: 10; is-custom-font: none; font-file-url: none; fill: none; fill-rule: nonzero; opacity: 1;" transform=" translate(-22.5, -33.5)" d="M 38.5 25.5 v 10 c 0 3.3 -2.7 6 -6 6 h -20 c -3.3 0 -6 -2.7 -6 -6 v -7" stroke-linecap="round"/>
</g>
		<g transform="matrix(1 0 0 1 8.5 -8.5)" id="Layer_1">
<line style="stroke: rgb(83,194,139); stroke-width: 3; stroke-dasharray: none; stroke-linecap: round; stroke-dashoffset: 0; stroke-linejoin: round; stroke-miterlimit: 10; is-custom-font: none; font-file-url: none; fill: none; fill-rule: nonzero; opacity: 1;" x1="-9" y1="9" x2="9" y2="-9"/>
</g>
		<g transform="matrix(1 0 0 1 10.5 -10.5)" id="Layer_1">
<polyline style="stroke: rgb(83,194,139); stroke-width: 3; stroke-dasharray: none; stroke-linecap: round; stroke-dashoffset: 0; stroke-linejoin: round; stroke-miterlimit: 10; is-custom-font: none; font-file-url: none; fill: none; fill-rule: nonzero; opacity: 1;" points="-7,-7 7,-7 7,7 "/>
</g>
</g>
</g>
</svg>