<svg xmlns="http://www.w3.org/2000/svg" id="Layer_1" x="0" y="0" version="1.1" viewBox="0 0 48 48" xml:space="preserve"><path fill="#90caf9" d="M42.9,43H13.1C10.8,43,9,41.2,9,38.9V17.1c0-2.2,1.8-4.1,4.1-4.1h29.9c2.2,0,4.1,1.8,4.1,4.1v21.9	C47,41.2,45.2,43,42.9,43z"/><path fill="none" stroke="#18193f" stroke-linecap="round" stroke-linejoin="round" stroke-width="3" d="M42.5,30.3v4.2c0,2.2-1.8,4-4,4h-29c-2.2,0-4-1.8-4-4v-7.6"/><path fill="none" stroke="#18193f" stroke-linecap="round" stroke-linejoin="round" stroke-width="3" d="M5.5,18.3v-4.8c0-2.2,1.8-4,4-4h29c2.2,0,4,1.8,4,4V25"/><path fill="none" stroke="#18193f" stroke-linecap="round" stroke-linejoin="round" stroke-width="3" d="M24.5,15.5h11c0.6,0,1,0.4,1,1v8c0,0.6-0.4,1-1,1h-11c-0.6,0-1-0.4-1-1v-8C23.5,15.9,23.9,15.5,24.5,15.5z"/></svg>