<svg xmlns="http://www.w3.org/2000/svg" id="Layer_1" x="0" y="0" version="1.1" viewBox="0 0 48 48" xml:space="preserve"><circle cx="28" cy="28" r="19" fill="#ffab91"/><path fill="none" stroke="#18193f" stroke-linecap="round" stroke-linejoin="round" stroke-width="3" d="M29.6,41.6c-1.8,0.6-3.6,0.9-5.6,0.9C13.8,42.5,5.5,34.2,5.5,24c0-5,2-9.5,5.2-12.9"/><path fill="none" stroke="#18193f" stroke-linecap="round" stroke-linejoin="round" stroke-width="3" d="M24,5.5c10.2,0,18.5,8.3,18.5,18.5c0,4.7-1.7,8.9-4.6,12.2"/><path fill="none" stroke="#18193f" stroke-miterlimit="10" stroke-width="3" d="M24.8,33.5h-3.5c-2.7,0-4.8-2.1-4.8-4.8v-5.1h12v6.2C28.5,31.9,26.9,33.5,24.8,33.5z"/><path fill="#18193f" d="M16.5,24.8c-0.8,0-1.5-0.7-1.5-1.5v-6c0-0.8,0.7-1.5,1.5-1.5s1.5,0.7,1.5,1.5v6C18,24.1,17.3,24.8,16.5,24.8z"/><path fill="#18193f" d="M20.5,24.8c-0.8,0-1.5-0.7-1.5-1.5v-9c0-0.8,0.7-1.5,1.5-1.5s1.5,0.7,1.5,1.5v9C22,24.1,21.3,24.8,20.5,24.8z"/><path fill="#18193f" d="M28.5,24.8c-0.8,0-1.5-0.7-1.5-1.5v-8c0-0.8,0.7-1.5,1.5-1.5s1.5,0.7,1.5,1.5v8C30,24.1,29.3,24.8,28.5,24.8z"/><path fill="#18193f" d="M24.5,24.8c-0.8,0-1.5-0.7-1.5-1.5v-10c0-0.8,0.7-1.5,1.5-1.5s1.5,0.7,1.5,1.5v10 C26,24.1,25.3,24.8,24.5,24.8z"/><path fill="#18193f" d="M35,23.6c-0.6-0.5-1.6-0.5-2.1,0.2l-4.8,4.1v5.8c0.2-0.1,0.4-0.2,0.6-0.4l6.5-7.6C35.7,25.1,35.6,24.1,35,23.6	z"/></svg>