<svg xmlns="http://www.w3.org/2000/svg" id="Layer_1" x="0" y="0" version="1.1" viewBox="0 0 48 48" xml:space="preserve"><path fill="#ffab91" d="M40.9,45H15.1c-2.3,0-4.1-1.8-4.1-4.1V15.1c0-2.3,1.8-4.1,4.1-4.1h25.8c2.3,0,4.1,1.8,4.1,4.1v25.8	C45,43.2,43.2,45,40.9,45z"/><path fill="none" stroke="#18193f" stroke-linecap="round" stroke-linejoin="round" stroke-width="3" d="M40.5,34.4v2.1c0,2.2-1.8,4-4,4h-25c-2.2,0-4-1.8-4-4V24.3"/><path fill="none" stroke="#18193f" stroke-linecap="round" stroke-linejoin="round" stroke-width="3" d="M7.5,15v-3.5c0-2.2,1.8-4,4-4h25c2.2,0,4,1.8,4,4v16.9"/><circle cx="16" cy="32" r="3.5" fill="none" stroke="#18193f" stroke-width="3"/><path fill="none" stroke="#18193f" stroke-linecap="round" stroke-width="3" d="M16.5,14L16.5,14C26.2,14,34,21.8,34,31.5l0,0"/><path fill="none" stroke="#18193f" stroke-linecap="round" stroke-width="3" d="M16.5,21.3L16.5,21.3c5.6,0,10.2,4.6,10.2,10.2l0,0"/></svg>