<svg xmlns="http://www.w3.org/2000/svg" id="Layer_1" x="0" y="0" version="1.1" viewBox="0 0 48 48" xml:space="preserve"><path fill="#9fa8da" d="M46,45H10c-0.6,0-1-0.4-1-1V12c0-0.6,0.4-1,1-1h36c0.6,0,1,0.4,1,1v32C47,44.6,46.6,45,46,45z"/><path fill="none" stroke="#18193f" stroke-linecap="round" stroke-linejoin="round" stroke-width="3" d="M27.5,14.5h-7c-0.6,0-1-0.4-1-1v-5c0-0.6,0.4-1,1-1h7c0.6,0,1,0.4,1,1v5C28.5,14.1,28.1,14.5,27.5,14.5z"/><path fill="none" stroke="#18193f" stroke-linecap="round" stroke-linejoin="round" stroke-width="3" d="M21.2,27.5h-0.6c-0.6,0-1-0.4-1-1v-5c0-0.6,0.4-1,1-1h7c0.6,0,1,0.4,1,1v5c0,0.6-0.4,1-1,1h-1.6"/><path fill="none" stroke="#18193f" stroke-linecap="round" stroke-linejoin="round" stroke-width="3" d="M27.5,40.5h-7c-0.6,0-1-0.4-1-1v-5c0-0.6,0.4-1,1-1h7c0.6,0,1,0.4,1,1v5C28.5,40.1,28.1,40.5,27.5,40.5z"/><path fill="none" stroke="#18193f" stroke-linecap="round" stroke-linejoin="round" stroke-width="3" d="M5.5,8.5c0-0.6,0.4-1,1-1h6c0.6,0,1,0.4,1,1v5c0,0.6-0.4,1-1,1h-6c-0.6,0-1-0.4-1-1"/><path fill="none" stroke="#18193f" stroke-linecap="round" stroke-linejoin="round" stroke-width="3" d="M35.5,14.5c-0.6,0-1-0.4-1-1v-5c0-0.6,0.4-1,1-1h6c0.6,0,1,0.4,1,1v5c0,0.6-0.4,1-1,1"/><path fill="none" stroke="#18193f" stroke-linecap="round" stroke-linejoin="round" stroke-width="3" d="M12.5,27.5h-6c-0.6,0-1-0.4-1-1v-5c0-0.6,0.4-1,1-1h6c0.6,0,1,0.4,1,1v5C13.5,27.1,13.1,27.5,12.5,27.5z"/><path fill="none" stroke="#18193f" stroke-linecap="round" stroke-linejoin="round" stroke-width="3" d="M41.5,27.5h-6c-0.6,0-1-0.4-1-1v-5c0-0.6,0.4-1,1-1h6c0.6,0,1,0.4,1,1v5C42.5,27.1,42,27.5,41.5,27.5z"/><path fill="none" stroke="#18193f" stroke-linecap="round" stroke-linejoin="round" stroke-width="3" d="M5.5,34.5c0-0.6,0.4-1,1-1h6c0.6,0,1,0.4,1,1v5c0,0.6-0.4,1-1,1h-6c-0.6,0-1-0.4-1-1"/><path fill="none" stroke="#18193f" stroke-linecap="round" stroke-linejoin="round" stroke-width="3" d="M41.5,33.5c0.6,0,1,0.4,1,1v5c0,0.6-0.4,1-1,1h-6c-0.6,0-1-0.4-1-1v-5c0-0.6,0.4-1,1-1"/></svg>