<svg xmlns="http://www.w3.org/2000/svg" id="Layer_1" x="0" y="0" version="1.1" viewBox="0 0 48 48" xml:space="preserve"><path fill="#90caf9" d="M41.4,17.3c0.4,0.4,0.4,1,0,1.4c-2.2,2.1-8.9,8.2-14.5,8.2c-4.9,0-8.9-4-8.9-8.9s4-8.9,8.9-8.9	C32.5,9.1,39.2,15.2,41.4,17.3z"/><path fill="none" stroke="#18193f" stroke-linecap="round" stroke-linejoin="round" stroke-width="3" d="M32.9,9.9c2.7,2.1,4.6,4.1,4.6,4.1s-8,8.5-14.5,8.5c-4.7,0-8.5-3.8-8.5-8.5s3.8-8.5,8.5-8.5	c1.6,0,3.3,0.5,5,1.3"/><path fill="none" stroke="#18193f" stroke-linecap="round" stroke-linejoin="round" stroke-width="3" d="M24.5,29.5h-12c-1.7,0-3,1.3-3,3v1.2c0,4.6,5.9,8.8,14.5,8.8c0.3,0,0.5,0,0.5,0"/><line x1="44.5" x2="30.5" y1="29.5" y2="29.5" fill="none" stroke="#18193f" stroke-linecap="round" stroke-linejoin="round" stroke-width="3"/><line x1="40.5" x2="30.5" y1="35.5" y2="35.5" fill="none" stroke="#18193f" stroke-linecap="round" stroke-linejoin="round" stroke-width="3"/><line x1="44.5" x2="30.5" y1="41.5" y2="41.5" fill="none" stroke="#18193f" stroke-linecap="round" stroke-linejoin="round" stroke-width="3"/></svg>